<svg version="1.1" id="Layer_1" xmlns="http://www.w3.org/2000/svg" xmlns:xlink="http://www.w3.org/1999/xlink" x="0px" y="0px"
	 width="100%" viewBox="0 0 992 992" enable-background="new 0 0 992 992" xml:space="preserve">
<path fill="#000000" opacity="1.000000" stroke="none" 
	d="
M861.418213,623.416504 
	C853.119568,631.395691 845.100708,639.156128 837.007935,646.838684 
	C833.043884,650.601807 828.012939,652.478760 822.962280,654.192688 
	C817.644775,655.997009 815.361450,658.869202 815.369629,664.429688 
	C815.372314,666.246521 815.678528,668.062805 815.843628,669.879517 
	C816.496582,677.066956 816.830933,684.222595 812.265747,690.474854 
	C810.601624,692.753845 811.951172,694.625916 812.826843,696.517029 
	C818.979736,709.805115 828.152649,721.096985 837.236694,732.353027 
	C867.393555,769.720276 900.259399,804.641846 934.134033,838.632812 
	C935.273376,839.776062 936.821777,840.696716 936.694031,843.467773 
	C931.066589,844.998474 925.225830,846.606995 919.374451,848.175537 
	C890.018738,856.044373 860.647339,863.855103 831.307678,871.782959 
	C814.271484,876.386414 797.320740,879.968506 779.317200,879.588562 
	C740.006226,878.758850 700.665161,879.355652 661.336426,879.357666 
	C654.742737,879.358032 654.423767,879.314514 654.745117,872.790955 
	C655.561462,856.218933 653.324158,839.865479 650.396057,823.726929 
	C646.596191,802.783875 640.228333,782.495361 630.632385,763.330139 
	C627.887817,757.848633 624.140869,755.218994 617.795898,754.974243 
	C606.147461,754.524719 595.474792,757.957397 584.798279,761.748413 
	C566.771973,768.149170 549.274719,775.900146 530.961548,781.638123 
	C508.192047,788.772461 486.185120,787.118896 463.927948,779.724548 
	C442.917145,772.744263 422.949188,762.955078 401.554077,757.048828 
	C394.368530,755.065186 387.135529,754.749146 379.792877,755.359863 
	C375.440063,755.721863 373.178986,758.551392 371.327148,762.180847 
	C362.958649,778.582642 357.056122,795.849121 353.000000,813.768921 
	C348.586426,833.268250 346.032104,853.006714 346.394501,873.017639 
	C346.487152,878.135681 344.826447,879.482300 339.834595,879.462158 
	C294.173889,879.277649 248.512024,879.411438 202.851059,879.267944 
	C192.907730,879.236694 183.734024,875.068848 174.274612,872.628479 
	C139.368393,863.623230 104.568756,854.204529 69.736328,844.914001 
	C63.676842,843.297729 63.624325,842.792053 68.055840,838.190918 
	C96.127625,809.044373 124.214455,779.909729 150.402954,749.024719 
	C162.678696,734.547485 174.824844,719.966187 184.786896,703.731506 
	C185.744339,702.171204 186.629288,700.562439 187.473862,698.937622 
	C189.464157,695.108704 191.012100,691.906799 187.518555,687.340942 
	C183.665405,682.305115 184.749496,675.553955 185.375336,669.389221 
	C185.645081,666.732117 186.100571,664.085266 185.515091,661.436096 
	C184.923065,658.757202 183.980957,655.909729 181.070068,655.272949 
	C169.652863,652.775635 162.045364,644.711609 154.066010,637.205811 
	C140.712357,624.644714 127.413116,612.034363 117.789070,596.147705 
	C114.266739,590.333252 112.470482,583.964905 111.190994,577.440186 
	C107.341743,557.810852 97.695747,541.487061 83.378593,527.741638 
	C81.094940,525.549194 78.868790,523.295837 76.647530,521.039612 
	C69.413200,513.691589 65.602165,504.966095 65.805344,494.539886 
	C66.126366,478.066345 64.523140,462.002930 55.571335,447.518738 
	C53.467503,444.114655 52.012058,440.434082 51.293587,436.410553 
	C50.909081,434.257294 50.662952,432.142426 50.664524,429.984344 
	C50.676785,413.177765 49.960743,396.328217 51.841396,379.596863 
	C53.418571,365.565369 57.054241,351.891937 60.142941,338.117737 
	C66.915573,307.914856 82.318893,282.567688 101.801743,259.000916 
	C111.472328,247.303207 122.519722,236.955887 132.194672,225.294693 
	C138.118988,218.154129 141.734085,210.216125 144.567444,201.626663 
	C152.354385,178.020142 166.028885,159.165222 189.114136,148.489853 
	C199.714645,143.587799 210.573166,140.849609 222.847672,142.865952 
	C235.705109,144.978088 248.755112,146.661835 261.874420,147.124344 
	C265.324463,147.246002 268.745117,148.141678 272.184052,148.649521 
	C282.158936,150.122513 290.176483,145.474030 298.313904,140.668533 
	C310.391724,133.536072 322.985535,127.306564 336.854614,124.542526 
	C367.243195,118.486244 393.049561,126.778137 413.820099,150.017944 
	C415.484589,151.880325 417.087921,153.797745 418.705780,155.701370 
	C422.750946,160.461121 424.574860,160.638229 429.421936,156.487732 
	C432.707977,153.673889 435.627533,150.366119 439.147369,147.902771 
	C453.136139,138.112717 467.689758,139.957397 482.196381,146.601166 
	C487.332153,148.953262 492.321564,151.751007 496.670471,155.421906 
	C499.509552,157.818329 501.786530,157.438187 504.613129,155.329681 
	C510.901733,150.638718 517.607971,146.648224 525.107971,144.070099 
	C541.356445,138.484604 555.862366,141.044708 568.452759,153.015976 
	C577.444824,161.565842 577.440247,161.570618 585.419617,152.085022 
	C609.987549,122.879524 647.291260,114.607666 682.597412,130.428894 
	C691.580811,134.454468 700.421448,138.773972 708.686523,144.084152 
	C716.223450,148.926514 724.320007,149.281784 732.719055,148.398087 
	C743.786316,147.233673 754.843506,145.968323 765.895386,144.664307 
	C771.325317,144.023651 776.728088,143.157150 782.152527,142.465637 
	C790.989685,141.339050 799.449524,143.475510 807.462769,146.615540 
	C829.803894,155.369995 845.577087,171.490417 853.342712,193.840286 
	C859.986694,212.962051 870.919983,228.177094 884.694031,242.715164 
	C905.741028,264.929657 925.495667,288.498840 935.270325,318.489532 
	C940.585632,334.797974 944.615112,351.415497 947.639404,368.279938 
	C951.117554,387.674561 951.358215,407.285034 951.235657,426.907257 
	C951.181274,435.621063 948.293274,443.569702 944.119690,451.043365 
	C938.469360,461.161346 935.197021,471.760437 936.073303,483.498596 
	C936.558716,490.001678 935.421997,496.456421 934.635864,502.885742 
	C933.771484,509.954865 929.864136,515.589539 925.081299,520.616272 
	C919.119690,526.881958 913.130371,533.077698 907.495789,539.687195 
	C898.517883,550.218445 893.284973,562.403381 890.838074,575.498596 
	C887.744812,592.052856 879.018982,604.905762 867.901611,616.697327 
	C865.847534,618.875977 863.746826,621.010742 861.418213,623.416504 
M114.718681,267.210114 
	C99.113724,286.403809 84.606812,306.120728 78.066719,330.675598 
	C73.663803,347.206421 69.057808,363.625793 67.130318,380.690338 
	C65.858032,391.954254 65.662071,403.259338 65.105560,414.555817 
	C64.592537,424.969727 65.221710,435.025177 70.508591,444.443604 
	C74.823257,452.130066 78.752907,460.145569 79.866348,469.005035 
	C80.984627,477.902985 80.330429,486.924957 81.081886,495.896332 
	C81.589684,501.958832 83.641602,506.810669 87.722496,511.001892 
	C90.976624,514.343994 94.450638,517.474976 97.651375,520.865540 
	C109.825287,533.761230 118.919945,548.331604 123.779404,565.657166 
	C125.911018,573.257080 126.374222,581.384033 130.711639,588.428162 
	C139.385605,602.515015 151.064758,613.839294 163.076248,624.935059 
	C170.496063,631.789185 177.122482,639.699524 187.973236,641.418457 
	C189.299149,641.628479 190.529251,642.922974 191.646301,643.895691 
	C200.334412,651.461243 202.616058,661.116089 200.168793,671.965393 
	C199.192444,676.293762 200.465118,677.951294 204.667664,677.872070 
	C207.319275,677.822083 208.892990,678.768555 208.193741,681.762024 
	C207.137848,686.282288 206.276001,690.858887 204.985214,695.311096 
	C200.902176,709.394653 192.054184,720.840576 183.357635,732.138550 
	C159.264694,763.438293 132.735184,792.646423 105.299042,821.038330 
	C101.053986,825.431213 96.980240,829.989563 92.785614,834.516296 
	C94.380173,836.141785 96.038582,836.295044 97.618225,836.713867 
	C121.858452,843.139832 146.115112,849.505859 170.317841,856.070557 
	C187.828308,860.820007 205.186081,865.025024 223.747955,864.303467 
	C249.871201,863.287964 276.063507,863.987610 302.225861,864.077026 
	C310.210419,864.104248 318.200348,864.409363 326.174652,864.834290 
	C330.565552,865.068176 332.129425,863.342468 331.889160,859.007690 
	C331.286926,848.144592 333.313446,837.416504 335.038483,826.832031 
	C339.227509,801.128967 346.582855,776.360291 359.130035,753.243042 
	C362.928314,746.244995 368.129089,742.502014 375.424438,740.780151 
	C387.553680,737.917603 399.223236,740.391479 410.785309,743.881470 
	C424.826477,748.119751 438.145844,754.264832 451.813904,759.489807 
	C455.387421,760.855835 458.887939,762.874023 464.067017,762.315430 
	C458.831482,754.959351 459.403534,747.132812 458.769226,739.331482 
	C457.635895,725.392578 452.562866,713.450989 438.074493,707.907593 
	C434.830383,706.666443 432.063843,704.376709 429.389862,702.088684 
	C420.699249,694.652405 417.448456,685.221680 420.566437,674.344421 
	C421.841156,669.897583 420.887573,668.093079 417.227325,666.105469 
	C411.083435,662.769287 405.036133,659.163025 400.323273,653.832153 
	C394.612518,647.372437 394.720093,643.056396 400.600800,636.917725 
	C407.414551,629.805054 412.953156,621.661194 419.163696,614.061829 
	C421.202911,611.566589 420.496765,609.946594 418.238068,608.313416 
	C412.434570,604.117371 406.697327,599.828430 400.856293,595.685669 
	C391.162231,588.810181 383.139404,580.766235 382.778839,567.961670 
	C382.475128,557.175903 387.282135,548.238586 394.526215,540.717102 
	C408.852478,525.842346 423.457153,511.235809 437.931305,496.503265 
	C441.431854,492.940247 444.860138,489.306335 448.346069,485.728821 
	C450.073395,483.956085 450.881744,482.319733 448.538574,480.303680 
	C441.292297,474.069061 435.640594,466.407043 429.787445,458.943298 
	C422.083893,449.119965 414.824799,438.953979 404.391876,431.608582 
	C395.142792,425.096680 385.700104,418.736298 378.386261,409.894928 
	C372.273224,402.505157 368.475159,394.278046 368.653503,384.372070 
	C368.865417,372.597260 373.581665,362.465607 380.829681,353.874451 
	C398.070709,333.438446 411.749573,311.003479 421.880341,286.295990 
	C423.398834,282.592560 423.348969,280.231659 420.512787,277.069519 
	C413.527832,269.281738 406.293243,261.560638 402.023193,251.770996 
	C397.978516,242.498077 399.504883,234.747360 406.588348,227.541245 
	C412.129761,221.903900 418.646240,217.574753 425.441345,213.654282 
	C439.735138,205.407410 453.858124,196.893631 467.037628,186.925476 
	C474.556763,181.238449 482.155212,175.614288 488.649445,168.342636 
	C486.053528,165.513458 483.106232,163.902008 480.209381,162.412338 
	C472.162598,158.274399 464.019836,154.607941 454.480621,157.179184 
	C448.514771,158.787231 444.152283,162.574814 440.236237,166.867477 
	C429.868805,178.231857 415.351837,176.582382 406.879669,164.964157 
	C404.447845,161.629395 401.301086,158.797745 398.365692,155.851440 
	C381.097717,138.519333 360.216461,134.506989 337.122314,139.860229 
	C322.319244,143.291595 309.584320,151.460876 296.579926,158.900620 
	C292.333801,161.329834 287.889771,162.880341 282.893372,163.099594 
	C263.153381,163.965790 243.692230,161.192429 224.334625,158.138840 
	C212.093948,156.207932 201.127502,158.624069 190.767761,164.504715 
	C175.771439,173.017303 165.632843,185.977097 160.652084,202.256027 
	C155.956100,217.604172 148.177704,230.715683 137.466782,242.473572 
	C130.081879,250.580322 121.637215,257.714600 114.718681,267.210114 
M572.334900,508.165192 
	C565.468262,501.132111 558.681824,494.018005 551.697876,487.103363 
	C548.633301,484.069183 548.002808,481.878082 551.874390,478.799377 
	C556.690369,474.969635 560.808960,470.294281 564.422546,465.277863 
	C577.373169,447.299774 592.209900,431.303711 611.081360,419.286621 
	C614.806702,416.914337 617.973328,413.485504 620.944519,410.141357 
	C630.063538,399.877625 633.659668,388.165131 629.735840,374.563751 
	C627.618591,367.224762 624.177612,360.531189 619.263611,354.853577 
	C601.536865,334.372101 587.840881,311.517761 577.573120,286.499207 
	C575.861877,282.329407 575.771790,279.507202 579.304199,275.967285 
	C587.187195,268.067535 594.451599,259.543030 598.514526,248.852600 
	C600.895630,242.587524 600.128479,236.822769 595.926025,231.506607 
	C591.183533,225.507187 585.060425,221.213608 578.573730,217.412903 
	C553.676758,202.825089 529.069153,187.853622 508.610535,167.091171 
	C506.865417,165.320145 504.764191,163.905563 502.917542,162.227310 
	C501.431427,160.876694 500.134583,160.737946 498.576355,162.147781 
	C496.521332,164.007095 494.009521,165.406372 492.636139,167.916641 
	C494.238190,170.704514 496.902863,171.972717 498.894348,173.940704 
	C514.722290,189.581894 532.157898,203.149734 551.244263,214.617630 
	C561.090820,220.533859 570.944885,226.463074 580.504578,232.823761 
	C589.504456,238.811981 590.011902,242.308258 584.367920,251.382156 
	C579.129822,259.803558 572.124817,266.722443 565.225037,273.720154 
	C563.107544,275.867676 561.815186,277.880707 563.077942,281.200043 
	C571.640442,303.707428 582.218994,325.127899 596.182434,344.833771 
	C601.959351,352.986389 609.378662,359.852997 614.286621,368.683777 
	C621.433899,381.543549 620.821533,390.886475 611.770935,402.329010 
	C607.673584,407.509186 602.221741,411.084747 596.956238,414.866119 
	C585.271118,423.257721 574.255310,432.315186 565.931152,444.271088 
	C557.323669,456.633881 547.089844,467.558472 535.984192,477.704559 
	C534.453308,479.103149 532.448303,480.264740 531.942688,482.794403 
	C532.724976,483.772827 533.467224,484.882782 534.384644,485.821564 
	C551.261047,503.090332 568.207458,520.291016 585.022705,537.619080 
	C590.344055,543.102722 596.291138,548.018433 600.544312,554.507019 
	C607.954285,565.811707 606.476257,574.588562 595.577271,582.517456 
	C585.744873,589.670471 575.817871,596.693359 565.949280,603.796814 
	C560.485596,607.729614 560.418335,607.951965 564.403503,613.036682 
	C571.801819,622.476135 579.247314,631.878967 586.725037,641.255737 
	C590.371277,645.827942 590.341858,646.160095 585.430237,649.656311 
	C578.733398,654.423096 571.139832,657.497864 563.874084,661.193970 
	C558.338989,664.009644 558.284973,664.290649 561.889343,669.106995 
	C563.186523,670.840393 564.511108,672.553650 565.791077,674.299622 
	C569.536804,679.408630 569.221375,685.072876 565.091736,689.807434 
	C562.637817,692.620789 559.800415,694.870422 556.402222,696.387268 
	C537.050659,705.025330 528.994202,721.426636 529.727295,741.046875 
	C530.335144,757.314575 509.413818,775.996643 492.319672,772.725037 
	C485.688416,771.455872 479.071747,769.979004 472.151947,768.559631 
	C478.417480,777.729248 491.756775,784.407715 501.771454,783.971558 
	C518.982422,783.222046 542.472900,761.624084 541.081299,743.248596 
	C539.779663,726.062195 546.986511,712.967285 563.790222,705.419128 
	C577.567749,699.230286 583.534607,684.745361 578.313843,672.842529 
	C576.531677,668.779175 577.709595,667.389160 581.091309,665.662659 
	C587.916748,662.177917 594.633484,658.410645 599.793091,652.528198 
	C604.192139,647.512695 604.748169,643.536682 600.954285,639.766296 
	C593.227905,632.087708 587.516663,622.790344 580.292297,614.745300 
	C577.154785,611.251404 577.903076,609.393066 581.464661,607.015015 
	C588.386292,602.393555 595.076599,597.424255 601.839172,592.566162 
	C619.142151,580.135986 622.295959,562.524597 608.952881,545.946716 
	C598.108154,532.472900 585.134033,520.847900 572.334900,508.165192 
z"/>
</svg>